<svg width="1440" height="686" viewBox="0 0 1440 686" fill="none" xmlns="http://www.w3.org/2000/svg">
<path fill-rule="evenodd" clip-rule="evenodd" d="M0 343.335V686.335H720H1440V353.704V21.0733L1422.75 16.2317C1413.26 13.5734 1390.65 14.6882 1372.5 18.7118C1325.11 29.2129 1287.97 59.575 1256.57 113.492C1250.56 123.815 1244.28 132.258 1242.62 132.258C1240.97 132.258 1230.36 119.824 1219.06 104.627C1178.05 49.5027 1135.36 19.0219 1081.44 6.35725C1007.3 -11.0632 943.44 31.3567 893.523 131.203L877.5 163.247L845.982 167.646C814.296 172.066 781.479 186.518 748.965 210.376L731.433 223.245L700.965 198.147C684.21 184.348 659.979 169.388 647.118 164.896C619.908 155.404 575.283 159.81 554.25 174.071C541.689 182.593 538.311 182.567 525.75 173.873C517.911 168.451 495.975 162.429 477 160.496C436.155 156.334 410.04 166.208 370.059 200.917L343.5 223.978L325.5 210.732C292.749 186.637 259.881 172.244 230.094 168.966L200.685 165.72L183.114 130.853C139.566 44.4369 86.22 0.334961 25.236 0.334961H0V343.335Z" fill="#241663"/>
</svg>
