<svg width="274" height="82" viewBox="0 0 274 82" fill="none" xmlns="http://www.w3.org/2000/svg">
<path fill-rule="evenodd" clip-rule="evenodd" d="M214.71 0.0296689C214.729 0.0454462 215.459 0.30672 216.332 0.610286C227.39 4.45686 236.007 8.34082 245.66 13.8305L247.268 14.7452V30.2427V45.7402L249.274 46.2077C258.429 48.3416 263.523 50.1111 272.155 54.1559C274.38 55.1982 274.418 55.1782 272.726 53.8583C266.549 49.0398 264.993 47.0154 261.417 39.1425C259.242 34.3515 258.207 32.5577 256.176 30.0543C255.755 29.5347 255.382 29.072 255.348 29.0263C255.306 28.9691 255.48 28.8357 255.904 28.6C257.855 27.5168 259.597 25.6775 262.716 21.4083C267.006 15.5375 268.801 14.1266 273.897 12.6157C274.173 12.534 274.005 12.4478 271.965 11.6273C253.748 4.30132 238.41 0.757715 221.93 0.0671809C220.409 0.00341712 214.642 -0.0265663 214.71 0.0296689ZM0 12.3832C0 12.4507 1.49918 14.432 2.96531 16.302C4.98468 18.8777 5.49876 19.6063 6.74567 21.66C7.7515 23.3166 8.75479 25.1552 10.681 28.8714C14.3044 35.8622 16.1376 38.8193 18.3257 41.2023C18.8053 41.7246 18.8073 41.7028 18.2502 41.9973C17.5938 42.3444 15.8971 43.3943 15.2507 43.8532C13.2347 45.285 12.279 46.1184 9.46379 48.9001C6.2014 52.1238 6.21538 52.1117 4.91216 52.8372C3.89815 53.4016 2.8225 53.856 1.35573 54.3392C-0.275148 54.8764 -0.3294 54.7388 1.92826 55.7898C10.3484 59.7091 15.5802 61.5411 23.9484 63.5003C25.3464 63.8276 26.5527 64.1114 26.6292 64.1309C26.7613 64.1646 26.7682 63.3972 26.7682 48.6465C26.7682 40.1106 26.795 33.1266 26.8278 33.1265C27.0207 33.1257 31.7468 32.4357 33.0559 32.2173C38.4279 31.3207 42.7889 30.2459 49.6046 28.1389C53.3523 26.9805 59.0405 25.0647 59.2802 24.8803C59.3157 24.853 57.7072 24.8137 55.7058 24.7932C52.1588 24.7567 51.1217 24.7184 48.1748 24.5151C33.5872 23.5085 19.4888 20.0599 2.68079 13.3866C1.2064 12.8012 0 12.3497 0 12.3832ZM213.709 14.1199C194.005 14.5836 176.281 17.1548 141.585 24.5826C120.641 29.0664 115.384 30.1452 106.795 31.7206C84.3531 35.8371 64.098 37.6013 48.4925 36.7988C41.0613 36.4167 35.0236 35.832 29.4847 34.9579C29.0347 34.8869 28.5968 34.8288 28.5116 34.8288C28.3585 34.8288 28.3568 35.0645 28.3568 56.9477V79.0666L28.615 79.1031C28.757 79.1231 29.5849 79.2445 30.4548 79.373C36.1258 80.21 41.4725 80.7108 48.4925 81.0624C50.7667 81.1763 62.2 81.1764 64.6964 81.0627C83.7899 80.192 100.319 77.6963 132.173 70.874C134.772 70.3173 139.187 69.3716 141.983 68.7726C170.058 62.7572 185.431 60.2311 201.516 58.9906C216.929 57.8019 232.236 58.2825 245.24 60.3635C245.678 60.4336 246.064 60.4911 246.097 60.4913C246.129 60.4914 246.156 50.5347 246.156 38.3652V16.239L245.977 16.2048C238.685 14.8111 224.174 13.8736 213.709 14.1199ZM223.717 16.7607C229.971 16.9638 235.541 17.4126 241.218 18.1707C242.15 18.2951 242.927 18.3969 242.946 18.3969C242.964 18.3969 242.979 27.165 242.979 37.8816V57.3663L242.681 57.3308C242.517 57.3113 241.257 57.1606 239.881 56.996C213.297 53.8158 188.323 56.1419 141.625 66.1476C139.026 66.7046 134.611 67.6505 131.815 68.2497C83.7294 78.5558 58.2354 80.7736 31.9312 76.9392L31.5738 76.887L31.5537 57.3893L31.5338 37.8915L31.7126 37.9277C32.905 38.1696 39.6026 38.8559 43.2898 39.1141C49.2622 39.5323 58.6376 39.6672 64.2993 39.4162C76.0038 38.8974 86.4239 37.7884 99.1694 35.7052C109.556 34.0074 118.021 32.3369 138.448 27.9532C161.473 23.0121 172.277 20.9649 184.359 19.2533C198.47 17.2545 212.184 16.3859 223.717 16.7607ZM213.59 17.7441C194.565 18.2063 176.46 20.8489 142.578 28.1092C139.804 28.7037 135.729 29.577 133.523 30.0499C91.9176 38.9688 69.6791 41.5672 45.8713 40.2914C41.8899 40.078 34.2607 39.3806 32.9041 39.106L32.7252 39.0698L32.7452 57.552L32.7652 76.034L33.4007 76.1174C53.0737 78.6986 73.5805 77.9113 99.4077 73.5831C108.709 72.0243 117.763 70.2266 135.787 66.3601C162.594 60.6094 173.769 58.5392 187.417 56.7961C206.739 54.3283 224.59 54.0628 240.261 56.01C240.973 56.0984 241.607 56.1707 241.671 56.1707C241.773 56.1707 241.788 53.8845 241.788 37.7177V19.2647L240.457 19.0918C232.15 18.0122 222.493 17.5278 213.59 17.7441Z" fill="#F06F38"/>
<path d="M60.8453 26.3159C48.2455 30.7928 41.1546 32.6913 28.4375 34.5446C41.8603 36.6713 48.984 37.179 60.8453 36.6512V26.3159Z" fill="#F06F38"/>
<path d="M214.622 1.49805C227.222 5.97492 239.007 11.1092 247.109 16.211C232.176 14.0386 226.06 14.0715 214.622 14.0715V1.49805Z" fill="#F06F38"/>
<path d="M103.147 46.7115C103.058 46.9535 102.953 47.1428 102.83 47.2794C102.706 47.404 102.536 47.4879 102.32 47.5311C102.093 47.5767 101.816 47.5324 101.49 47.3983C101.176 47.2619 100.787 47.1218 100.322 46.9781C99.8666 46.8201 99.3383 46.7017 98.7369 46.6227C98.1332 46.5318 97.442 46.5644 96.6633 46.7203C95.9446 46.8642 95.3277 47.0812 94.8127 47.3712C94.3096 47.6588 93.9048 48.0015 93.5982 48.3993C93.2917 48.7971 93.0869 49.2368 92.984 49.7184C92.8907 50.1856 92.8956 50.6768 92.9987 51.1918C93.1307 51.8507 93.4147 52.3669 93.8508 52.7406C94.2846 53.1022 94.8141 53.3824 95.4395 53.5811C96.0768 53.7774 96.7849 53.9222 97.5635 54.0155C98.3398 54.0967 99.1317 54.1936 99.9391 54.306C100.759 54.416 101.567 54.5656 102.365 54.7546C103.163 54.9437 103.895 55.2394 104.561 55.6418C105.239 56.0417 105.826 56.5783 106.322 57.2514C106.819 57.9245 107.173 58.7941 107.387 59.8602C107.617 61.0102 107.635 62.1278 107.442 63.2132C107.248 64.2986 106.849 65.2942 106.245 66.1999C105.652 67.0914 104.847 67.863 103.831 68.5149C102.827 69.1645 101.625 69.6295 100.223 69.9102C99.3966 70.0757 98.5713 70.1538 97.7471 70.1444C96.9373 70.1446 96.1443 70.0729 95.368 69.9293C94.6012 69.7714 93.8645 69.5452 93.1576 69.2506C92.4508 68.9561 91.8002 68.6005 91.2059 68.1837L92.0248 65.9266C92.099 65.7373 92.2104 65.578 92.3589 65.4486C92.5074 65.3192 92.6835 65.2341 92.8871 65.1933C93.1626 65.1381 93.4945 65.2087 93.8826 65.4051C94.2684 65.5895 94.7261 65.7906 95.2556 66.0085C95.7947 66.212 96.4261 66.3784 97.1497 66.5076C97.8708 66.6248 98.6986 66.5899 99.6329 66.4028C101.154 66.0981 102.254 65.4917 102.932 64.5835C103.621 63.6729 103.836 62.5648 103.574 61.2591C103.428 60.5284 103.135 59.9702 102.697 59.5846C102.256 59.187 101.717 58.8901 101.079 58.6937C100.454 58.495 99.7544 58.361 98.9805 58.2917C98.2066 58.2225 97.4184 58.1436 96.6157 58.0551C95.8107 57.9547 95.0105 57.8159 94.215 57.6388C93.4171 57.4497 92.6779 57.1492 91.9974 56.7373C91.3265 56.311 90.7393 55.7433 90.236 55.0343C89.7303 54.3132 89.3599 53.3658 89.1249 52.1918C88.9378 51.2575 88.9363 50.3171 89.1206 49.3707C89.3168 48.4219 89.6952 47.5425 90.2556 46.7326C90.8256 45.9083 91.5849 45.1893 92.5335 44.5758C93.4822 43.9622 94.6153 43.5235 95.933 43.2596C97.4183 42.9622 98.8247 42.9235 100.152 43.1436C101.491 43.3613 102.697 43.8114 103.768 44.494L103.147 46.7115ZM129.767 36.7834L134.948 62.6575L130.744 63.4994L128.437 51.9819L115.446 54.5833L117.753 66.1009L113.53 66.9464L108.349 41.0723L112.571 40.2268L114.838 51.5467L127.829 48.9453L125.562 37.6253L129.767 36.7834ZM162.834 43.6175C163.218 45.5341 163.26 47.3633 162.961 49.1052C162.662 50.847 162.061 52.4189 161.158 53.8207C160.265 55.2081 159.088 56.3907 157.627 57.3686C156.177 58.3441 154.482 59.0261 152.542 59.4147C150.613 59.8009 148.786 59.8241 147.061 59.4843C145.348 59.1421 143.806 58.504 142.436 57.5699C141.063 56.6239 139.903 55.4046 138.956 53.9123C138.009 52.4199 137.344 50.7154 136.96 48.7988C136.576 46.8822 136.534 45.0529 136.833 43.3111C137.132 41.5692 137.733 39.9974 138.636 38.5956C139.539 37.1938 140.715 36.0051 142.164 35.0297C143.626 34.0518 145.32 33.3698 147.249 32.9836C149.19 32.595 151.016 32.5718 152.73 32.914C154.455 33.2538 155.998 33.8979 157.359 34.8463C158.732 35.7924 159.892 37.0116 160.839 38.504C161.785 39.9964 162.451 41.7009 162.834 43.6175ZM158.54 44.4774C158.243 42.9921 157.771 41.6972 157.127 40.5929C156.494 39.4861 155.717 38.5951 154.797 37.9196C153.889 37.2418 152.858 36.7881 151.703 36.5583C150.548 36.3286 149.306 36.3469 147.976 36.6131C146.658 36.877 145.511 37.3373 144.533 37.994C143.556 38.6507 142.773 39.4679 142.184 40.4455C141.594 41.4232 141.215 42.5457 141.045 43.8132C140.875 45.0806 140.939 46.457 141.237 47.9424C141.536 49.4398 142.009 50.7406 142.654 51.8449C143.298 52.9493 144.081 53.8391 145.001 54.5146C145.919 55.178 146.955 55.6246 148.11 55.8543C149.262 56.072 150.497 56.049 151.815 55.7851C153.145 55.5189 154.299 55.0634 155.279 54.4186C156.257 53.7619 157.035 52.952 157.615 51.9887C158.204 51.011 158.577 49.8897 158.735 48.6246C158.905 47.3572 158.84 45.9748 158.54 44.4774ZM175.541 41.3346C176.475 41.1475 177.272 40.8634 177.931 40.4823C178.601 40.0988 179.127 39.6447 179.508 39.1199C179.898 38.5807 180.151 37.9757 180.266 37.3048C180.381 36.634 180.361 35.9152 180.208 35.1486C180.057 34.3939 179.801 33.7411 179.442 33.1901C179.094 32.6368 178.645 32.1972 178.094 31.8715C177.543 31.5458 176.886 31.3471 176.124 31.2754C175.372 31.1894 174.517 31.2423 173.558 31.4342L169.713 32.2042L171.696 42.1046L175.541 41.3346ZM172.9 28.146C174.589 27.8078 176.09 27.7128 177.403 27.861C178.728 28.0068 179.864 28.3588 180.81 28.9168C181.766 29.4604 182.543 30.1957 183.139 31.1228C183.734 32.0379 184.152 33.1003 184.394 34.3102C184.641 35.544 184.659 36.718 184.446 37.8321C184.23 38.9343 183.784 39.9394 183.106 40.8476C182.426 41.7438 181.511 42.5251 180.361 43.1914C179.22 43.8434 177.836 44.3325 176.207 44.6587L172.361 45.4287L174.236 54.7901L170.032 55.6321L164.85 29.758L172.9 28.146Z" fill="white"/>
</svg>
