<svg width="57" height="57" viewBox="0 0 57 57" fill="none" xmlns="http://www.w3.org/2000/svg">
<rect x="6.7832" y="6.98389" width="42.7345" height="41.6099" rx="10" transform="rotate(-0.273799 6.7832 6.98389)" fill="white"/>
<path d="M28.3184 42.868C20.2214 42.9067 13.6677 36.4153 13.629 28.3184C13.6118 24.7197 14.9452 21.3395 17.2939 18.6292L18.9877 20.0831C16.9742 22.342 15.8636 25.2712 15.8781 28.3076C15.9109 35.1676 21.4477 40.6517 28.3076 40.6189C30.107 40.6103 31.7922 40.2649 33.4753 39.4696L34.3847 41.4895C32.4772 42.3983 30.4551 42.8578 28.3184 42.868Z" fill="black"/>
<path d="M39.2042 37.9803L37.5103 36.5264C39.5238 34.2676 40.6344 31.3383 40.6199 28.3019C40.5871 21.442 35.0504 15.9579 28.1904 15.9906C26.3911 15.9992 24.7058 16.3447 23.0227 17.1399L22.1134 15.12C24.0209 14.2112 26.043 13.7517 28.1797 13.7415C36.2766 13.7028 42.8304 20.1942 42.8691 28.2912C42.8857 31.7774 41.5529 35.27 39.2042 37.9803Z" fill="black"/>
<path d="M20.3712 27.1617L18.122 27.1724L18.0898 20.4249L11.3423 20.4572L11.3315 18.208L20.3282 18.165L20.3712 27.1617Z" fill="black"/>
<path d="M45.1656 38.2896L36.169 38.3326L36.126 29.3359L38.3751 29.3252L38.4074 36.0727L45.1549 36.0404L45.1656 38.2896Z" fill="black"/>
</svg>
