<svg width="23" height="23" viewBox="0 0 23 23" fill="none" xmlns="http://www.w3.org/2000/svg">
<path d="M8.25256 3.61436C9.27489 0.46794 13.7262 0.467939 14.7486 3.61436C15.3396 5.4335 17.0349 6.66515 18.9476 6.66515C22.256 6.66515 23.6315 10.8986 20.955 12.8432C19.4075 13.9675 18.76 15.9604 19.3511 17.7795C20.3734 20.9259 16.7722 23.5424 14.0957 21.5978C12.5483 20.4735 10.4529 20.4735 8.90541 21.5978C6.2289 23.5424 2.62769 20.9259 3.65003 17.7795C4.2411 15.9604 3.59358 13.9675 2.04613 12.8432C-0.630374 10.8986 0.745165 6.66515 4.0535 6.66515C5.96626 6.66515 7.66149 5.4335 8.25256 3.61436Z" fill="#FFB800" stroke="black"/>
</svg>
