<svg width="274" height="269" viewBox="0 0 274 269" fill="none" xmlns="http://www.w3.org/2000/svg">
<path d="M224.4 20.301C224.4 20.301 214.1 7.80096 204.3 4.20096C194.5 0.600959 176.2 7.50098 165.4 12.601C154.7 17.601 130.6 32.401 124.1 43.801C117.6 55.201 118 62.301 121.1 63.201C124.2 64.101 118.6 63.401 119.5 67.701C120.4 72.001 121.8 78.801 125.4 80.901C129 83.001 151.4 84.1009 167.4 77.0009C183.4 69.9009 208.4 53.601 211.8 49.201C215.2 44.801 228.4 25.4009 226.7 24.0009C225.1 22.5009 225.5 20.601 224.4 20.301Z" fill="#7E5421"/>
<path d="M268.4 99.301C268.4 99.301 254.8 54.801 238.7 36.401C222.6 18.001 223.8 21.101 223.8 21.101C223.8 21.101 230.4 23.101 221.4 34.901C212.4 46.701 200.8 61.501 182 70.901C163.2 80.301 159.7 83.001 152.9 82.701C146.1 82.401 125.9 82.001 124.3 82.501C122.6 83.001 127 91.701 129.5 97.301C132 102.801 142.6 122.401 143.2 123.001C143.8 123.601 151.1 118.401 155.6 120.101C160.1 121.701 166.4 127.901 163.9 131.701C161.4 135.401 157.5 141.501 157.4 141.901C157.3 142.301 166.4 155.201 172.5 156.001C178.6 156.801 204.5 161.701 214.8 155.501C225.2 149.301 236.6 147.001 243.6 139.401C250.5 131.701 264.2 115.901 264.9 113.301C265.6 110.701 268.4 99.301 268.4 99.301Z" fill="#CDA367"/>
<path d="M269.4 105.3C269.4 105.3 275.6 114.5 269.2 128C262.8 141.5 250.2 156.7 241.7 161C233.2 165.3 220.6 172.4 208.2 170.8C195.8 169.2 181.2 167.1 176.3 161.5C171.4 155.9 173.7 155.8 174.5 155.7C175.3 155.6 189.7 158.5 198.1 157.6C206.4 156.7 226.4 151.9 235.5 145C244.7 138.1 255.6 130.5 260.5 121C265.3 111.4 266.5 100.7 269.4 105.3Z" fill="#7E5421"/>
<path d="M162.4 133.2C162.4 133.2 145.8 150.5 113.9 179.8C81.9999 209.1 44.8999 242.2 44.8999 242.2C44.8999 242.2 23.4001 262.2 18.6001 265.2C13.8001 268.2 6.19998 263.5 4.19998 260.5C2.19998 257.5 -5.80002 252.6 9.19998 239.8C24.2 227 70.7001 186.6 77.6001 180.5C84.5001 174.4 121 142.4 121 142.4C121 142.4 148.5 118.9 150.5 118.6C152.6 118.1 170 123.2 162.4 133.2Z" fill="#7E5421"/>
<path opacity="0.23" d="M210.6 154.901C210.6 154.901 159.2 119.201 170.9 74.701C170.9 74.701 159.8 87.001 124.2 82.401C124.2 82.401 131.4 110.401 146 127.101C160.6 143.801 165.6 154.901 168.7 154.701C171.9 154.701 191.2 160.701 210.6 154.901Z" fill="#7E5421"/>
<path opacity="0.23" d="M161 135.701C161 135.701 166 125.601 158.6 122.901C151.3 120.201 149.6 117.601 139.5 126.301C129.4 135.001 116.1 149.201 113.7 151.301C111.4 153.401 95.3999 199.201 98.3999 196.801C101.5 194.401 158 141.701 161 135.701Z" fill="#3F2600"/>
<path d="M131.2 104.2C133.5 109.8 136.7 115.8 140.4 121.5C141.9 123.8 141.4 124.8 139.6 126.3C126.8 137.3 114.1 148.3 101.5 159.4C91.2001 168.4 81.2 177.6 70.7 186.4C49.5 204.2 29.3 223.2 7.89999 240.8C6.59999 241.8 5.40014 243 4.30014 244.1C-0.799865 249 -1.10001 251.1 2.39999 257.3C4.29999 260.6 6.60004 263.4 9.70004 265.7C14.4 269.3 17.4001 269.3 22.0001 265.7C36.5001 254.3 50.4002 242.1 64.1002 229.7C91.2002 204.9 118.3 180.2 145.3 155.4C148.5 152.5 151.8 149.6 154.7 146.5C156.6 144.4 157.7 144.9 159.3 146.8C163.3 151.5 167.7 155.9 172.2 160.2C181.5 169 192.2 173.5 205.2 173.1C230.6 172.3 250.8 161.9 264.9 140.7C270.4 132.4 274.2 123.4 272.7 112.9C271.6 105.5 270 98.2 267.7 91.1C264.6 81.8 261.6 72.4 257.1 63.7C246 42.3 231.8 23.3 212.9 8.00003C202.9 -0.0999708 192 -0.499983 180.5 3.30002C161.6 9.40002 144.7 18.9 130.9 33.3C126 38.5 120.6 43.6 118.4 50.8C116 58.5 117.6 66.1 119.8 73.6C122.6 83.8 126.3 93.8 131.2 104.2ZM222 48.8C221.1 47.6 220.4 46.2 219.4 45.1C217.9 43.4 218.1 41.8001 219.4 40.4001C222.6 36.9001 224.1 32.5 225.6 28.3C226.7 25.3 227.5 26.2 228.9 27.8C239 39.4 247.4 52.1 254.3 65.8C258.5 74.3 261.9 83.1 265.1 92C267.2 97.8 267 102.9 265.1 108.3C264.9 108.8 264.7 109.5 264 109.5C263.2 109.5 263.2 108.8 263 108.3C262 106.1 261 103.9 260 101.7C260.3 104 261 106.1 261.9 108.1C263.1 110.9 263.5 113.6 261.8 116.4C258 122.8 253.8 128.8 248.4 133.9C247.1 135.1 245.8 136.5 244.3 137.1C243.2 137.5 242.8 137.8 242.2 138.8C240.4 141.7 238.3 141.6 236.7 138.7C234.7 135.3 232.7 131.9 230.6 128.6C232 132.2 233.7 135.7 235.7 139C237.4 141.8 236.6 143.2 234 144.8C221.1 152.4 207.2 156.3 192.3 156.6C185.3 156.8 179.3 155.6 175.5 149.1C175.3 148.8 175 148.7 174.4 148.2C175.2 150.6 177.4 151.8 177.9 154.2C174.4 154.1 171.3 153.1 168.5 151.4C164.8 149.3 161.8 145.9 160.1 142.2C159 140 162.5 138.1 163.8 135.9C166.7 130.8 166.2 125.9 162.1 121.8C157.9 117.6 151.9 116.6 147.4 119.8C145.1 121.4 144.2 120.9 142.9 118.8C137.1 108.9 132 98.6 128 87.8C126 82.3 125.8 82.4 131.6 83C146.5 84.8 160.7 82.1 174.3 76C190.3 68.8 204.5 59.1 215.8 45.5C217.3 43.7 218.2 43.7 219.5 45.5C220 46.9 220.4 48.5 222 48.8ZM15.7 260.1C13.7 255.5 11.4001 252.2 8.30013 249.5C6.40013 247.9 6.60009 246.9 8.50009 245.5C10.7001 243.9 12.7 242.1 14.7 240.4C39 219.8 62.2001 197.8 86.5001 177.2C102.6 163.6 118.1 149.5 134 135.7C139 131.3 143.5 126.4 148.9 122.5C151.3 120.8 153.8 120.4 156.4 122C161.5 125.2 162.8 131.5 159.2 136.3C158 137.9 156.5 139.3 155.1 140.6C132.5 161.1 110 181.6 87.4 202.1C73.8 214.5 60.3002 227.1 46.6002 239.4C37.7002 247.4 28.6001 255 19.5001 262.7C16.1001 265.6 14.6 265.5 11.2 262.6C8.50004 260.3 6.20004 257.7 4.70004 254.5C4.20004 253.4 3.30009 252 4.50009 251C5.50009 250.2 6.70018 251.3 7.60018 251.9C10.8002 253.9 12.5 257 15.7 260.1ZM165.9 13.3C172.3 10.3 178.8 7.90004 185.7 6.20004C190.8 5.00004 196 4.10004 201.3 5.70004C205.6 7.00004 207.5 10.1 206.8 14.5C206.1 19.2 203.8 23.1 200.8 26.6C186.2 43.8 168.2 56.1 146.4 62.6C141.2 64.2 135.9 64.8001 130.5 64.4001C122 63.7001 119.2 58.8 122.2 50.8C124.2 45.5 127.5 41.1 131.3 37.3C141.3 27.3 152.9 19.2 165.9 13.3ZM121.1 64.7C124.4 66.4 127.3 67.5 130.6 67.5C136.5 67.4 142.3 66.4 147.8 64.7C163.6 59.7 177.9 51.7 190.6 41.2C200.5 33 209.9 24.2 210.3 9.50003C215.1 12.9 219 16.7 222.8 20.7C224.5 22.5 224.6 24.2001 223.9 26.4001C221.3 34.9001 216.1 41.9 210.1 48.1C196.8 61.8 181.1 71.7 163 77.7C151.8 81.4 140.3 83.2 128.5 80.8C127.1 80.5 125.2 80.6001 124.6 78.9001C123.1 74.4001 121.4 70 121.1 64.7ZM267.6 105.8C268 106.1 268.2 106.2 268.3 106.4C268.5 106.8 268.5 107.3 268.6 107.8C271 119.2 268.3 129.4 262.1 139.2C248.1 161.5 222.2 172.6 195.8 169.1C187.2 168 180.4 163.1 174.3 157.1C176.1 157.2 177.8 157.6 179.5 157.9C181.3 158.2 182.8 158.7 184.1 160.1C185.1 161.2 186.2 162.7 188.2 163.1C187.5 161.3 185.4 161 185.5 159C185.9 158.9 186.3 158.8 186.8 158.8C203.8 160 219.5 155.5 234.1 147C237 145.3 239.2 144.2 240.3 148.6C240.3 148.6 240.7 148.5 241.3 148.5C239.7 145.9 239 143.5 242.4 141.6C244.5 140.4 244.8 142.3 245.9 143.1C246.1 141.5 244.1 140.2 246 138.8C253.1 133.2 258.6 126.3 262.7 118.3C263.6 116.5 264.5 117 265.6 118.3C263.6 113.5 266 109.8 267.6 105.8Z" fill="black"/>
<path d="M193 131.1C186.3 120.2 179.5 109.4 172.5 98.1C172.7 102.8 186 124.2 193 131.1Z" fill="black"/>
<path d="M222.1 48.701C223.9 54.301 227.9 58.701 230.6 63.801C231.9 66.101 233 68.601 234.7 70.701C231.3 62.901 226.8 55.801 222.1 48.701C222 48.801 222.1 48.701 222.1 48.701Z" fill="black"/>
<path d="M56.8999 211.5C53.1999 214.8 49.4999 218.1 45.8999 221.4C39.2999 227.3 31.5999 231.9 26.3999 239.3C25.3999 240.7 23.7 241.1 22 241.1C18.9 241.2 17.4 243.3 16.3 245.9C20.8 241.7 27.7 242.3 31.8 236.6C36.9 229.5 44.7 224.9 50.8 218.6C53 216.4 55.2001 214.1 57.3 211.9C57.2001 211.8 56.9999 211.6 56.8999 211.5Z" fill="black"/>
<path d="M104.6 169.001C106.9 168.501 107.8 167.201 108.9 166.201C116.1 159.701 123.3 153.301 130.2 146.301C133.8 142.601 138.5 140.301 142.6 137.201C144.4 135.801 146.3 134.401 146.8 131.801C142.6 137.101 135.5 137.901 130.9 142.501C122.4 151.301 114.1 160.301 104.6 169.001Z" fill="black"/>
<path d="M146.2 35.801C147.7 35.501 148.8 37.101 150.6 36.401C153.5 35.301 154.1 36.001 153.4 39.101C153.2 39.901 153 40.601 152.6 42.401C155 39.601 154 34.901 158.7 35.501C154.4 33.501 150.4 35.201 146.2 35.801Z" fill="black"/>
</svg>
