<svg width="683" height="1476" viewBox="0 0 683 1476" fill="none" xmlns="http://www.w3.org/2000/svg">
<path d="M682 0H0V1476H682V0Z" fill="#9DCD57"/>
<path d="M5.99438 9.31186C5.99438 9.31186 9.6345 17.1604 15.6145 14.128C21.5945 11.0956 26.0447 6.81461 32.0247 9.31186C38.0047 11.8091 30.8545 11.9875 45.1545 14.8415C59.5745 17.8738 59.9246 12.5226 70.7146 14.8415C81.4946 17.1603 91.4646 11.8091 97.4446 14.8415C103.425 17.8738 113.855 24.4737 121.005 18.9441C128.165 13.4145 136.605 8.95511 142.115 8.41998C147.745 7.88486 165.204 11.0956 175.994 14.6631C186.784 18.2306 190.415 15.1982 199.565 14.6631C208.705 13.9496 217.965 4.49575 220.665 8.41998C223.475 12.1658 236.255 5.20924 239.775 7.52811C243.405 9.84698 233.444 -3.53108 250.554 6.99301C267.674 17.6955 285.735 20.0143 288.895 17.6955C292.065 15.1982 297.695 -0.498744 298.045 11.9875C298.395 24.4737 297.225 3.24714 304.375 2.89039C311.525 2.53364 313.984 13.4145 319.494 11.9875C325.004 10.5605 345.054 12.8793 355.844 11.9875C366.624 11.0956 388.195 9.84698 390.195 11.9875C392.185 14.128 402.615 -7.6337 410.125 2.89039C417.625 13.4145 423.725 21.7981 424.895 21.0846C424.895 21.0846 429.234 20.1927 432.865 15.3766C436.505 10.5605 440.844 1.99851 442.014 8.06324C443.184 14.128 483.165 27.5061 487.145 21.0846C491.135 14.6631 502.275 8.24163 507.085 10.5605C511.885 12.8794 516.224 17.1603 523.494 14.6631C530.644 12.1658 527.125 1.99852 541.085 15.9117C555.035 29.8249 561.475 32.1438 582.235 22.8683C602.985 13.5929 602.985 34.641 611.775 22.8683C620.565 11.0956 631.584 7.34974 634.284 16.4468C637.094 25.5439 649.295 14.128 650.815 18.409C652.345 22.69 655.625 32.5006 657.965 28.3979C660.315 24.4737 660.315 3.78226 663.945 20.7278C667.585 37.6734 669.575 38.3869 667.585 49.2678C665.585 60.1486 684.695 64.0728 661.255 91.5425C637.685 118.834 657.615 133.104 659.605 142.201C661.605 151.298 659.605 149.514 661.255 163.427C662.895 177.341 676.025 163.963 667.235 190.184C658.435 216.226 671.564 213.907 668.054 236.918C664.414 259.928 657.264 313.976 657.264 313.976L663.244 341.267C663.244 341.267 673.675 372.839 671.215 385.682C668.875 398.347 661.255 393.531 665.235 417.789C669.225 442.048 671.215 431.168 670.045 462.74C668.875 494.312 678.365 483.431 672.855 513.755C667.235 544.079 682.475 527.133 667.695 548.36C652.925 569.586 652.105 557.457 657.735 585.997C663.365 614.537 664.885 596.877 666.875 619.353C668.875 641.828 672.855 619.888 668.875 641.828C664.885 663.768 664.535 659.487 664.885 663.768C665.234 668.049 667.695 658.238 667.235 680.178C666.875 702.118 660.895 715.318 664.885 725.664C668.875 736.01 677.315 714.069 665.235 744.571C653.275 774.895 667.585 752.42 661.255 785.241C654.925 818.062 648.475 811.997 654.925 831.44C661.255 850.883 658.085 834.472 659.725 860.515C661.365 886.558 668.515 862.299 669.695 888.52C670.865 914.562 669.694 904.93 668.514 914.027C667.344 923.124 653.745 927.94 659.725 940.783C665.705 953.626 666.875 962.01 664.885 970.572C662.895 979.134 669.224 983.237 668.054 994.296C666.874 1005.18 652.925 1008.21 658.905 1022.3C664.885 1036.21 667.695 1039.25 660.545 1059.4C653.395 1079.38 666.525 1059.94 662.895 1083.13C659.255 1106.14 658.905 1112.91 659.725 1115.95C660.545 1118.98 663.365 1103.82 662.895 1135.39C662.545 1166.96 677.315 1187.65 670.865 1204.6C664.534 1221.54 662.545 1208.88 662.545 1228.32C662.545 1247.77 639.445 1236.17 648.945 1250.8C658.555 1265.43 658.905 1251.33 664.065 1268.46C669.225 1285.58 665.235 1290.93 666.875 1301.81C668.515 1312.69 680.835 1296.28 671.685 1320.72C662.545 1344.98 670.514 1348.01 670.514 1355.86C670.514 1363.71 670.165 1360.14 672.855 1370.49C675.555 1380.83 682.005 1381.37 682.005 1381.37L675.675 1411.16C675.675 1411.16 650.935 1418.47 660.895 1426.32C670.865 1434.17 672.855 1440.95 672.855 1440.95C672.855 1440.95 671.215 1463.96 665.705 1461.64C660.075 1459.14 632.524 1416.15 624.554 1433.1C616.584 1450.04 600.635 1425.78 588.675 1444.69C576.725 1463.6 565.935 1458.96 561.125 1461.82C556.325 1464.67 544.715 1472.52 544.715 1472.52C544.715 1472.52 524.784 1477.33 518.804 1472.52C512.824 1467.7 508.835 1462.17 504.855 1462.89C500.865 1463.42 498.055 1480.54 484.925 1474.84C471.795 1468.95 453.034 1458.78 453.034 1458.78C453.034 1458.78 431.465 1446.65 424.665 1455.22C417.865 1463.78 402.264 1472.16 397.574 1470.38C392.774 1468.59 380.815 1448.44 376.005 1450.93C371.195 1453.43 350.095 1452.72 340.485 1457C330.865 1461.28 319.374 1451.47 315.744 1455.75C312.114 1460.03 311.755 1459.32 301.795 1463.06C291.825 1466.63 296.165 1463.6 287.375 1469.13C278.585 1474.66 260.295 1460.03 260.295 1460.03C260.295 1460.03 247.155 1459.5 243.175 1461.82C239.185 1464.31 241.185 1470.38 239.185 1469.13C237.195 1467.88 215.625 1453.97 214.445 1452.72C213.275 1451.47 215.274 1467.34 211.284 1466.63C207.294 1466.1 203.314 1466.63 200.494 1469.13C197.684 1471.63 185.375 1460.03 185.375 1460.03C185.375 1460.03 165.795 1468.59 161.455 1466.63C157.115 1464.85 161.804 1455.75 154.304 1466.1C146.684 1476.44 116.784 1452.18 116.784 1452.18L113.155 1460.03C113.155 1460.03 90.7646 1466.1 85.2546 1461.82C79.6246 1457.53 85.6047 1420.61 73.2947 1442.91C60.8647 1465.38 48.9046 1461.82 44.9246 1461.1C40.9346 1460.57 36.5946 1464.13 26.9846 1461.1C17.3646 1458.07 8.22467 1434.35 9.04467 1445.23C9.86467 1456.11 0.72473 1447.01 13.8547 1427.03C26.9847 1407.05 11.5048 1395.46 20.1848 1372.98C28.9748 1350.51 5.05465 1310.38 15.0247 1301.99C24.9947 1293.61 19.0148 1264.35 26.1648 1249.19C33.3148 1234.03 31.7947 1219.4 31.7947 1219.4C31.7947 1219.4 31.7948 1232.78 24.1648 1212.09C16.5448 1191.4 3.06444 1191.4 14.5544 1179.27C26.1644 1167.14 20.8844 1150.73 20.5344 1146.45C20.1844 1142.17 7.75446 1099.72 8.57446 1094.19C9.39446 1088.66 9.74438 1052.27 11.7444 1032.29C13.7344 1012.31 2.5945 970.929 6.1145 966.648C9.7445 962.367 21.2345 964.15 18.0745 939.356C14.9045 914.384 18.4248 911.352 15.7248 896.19C12.9148 881.028 -1.8556 847.672 3.7644 838.575C9.3944 829.478 8.10446 823.413 8.57446 810.57C8.92446 797.905 4.59452 794.695 13.3845 755.274C22.1745 715.853 7.40454 684.816 7.40454 684.816L18.1946 677.503C18.1946 677.503 8.57454 645.93 7.40454 633.087C6.23454 620.245 18.5447 650.033 15.0247 609.364C11.3947 568.694 22.9945 569.943 21.8245 557.1C20.6545 544.435 11.3948 519.463 11.3948 516.431C11.3948 513.398 11.7444 487.355 11.7444 487.355C11.7444 487.355 6.58463 466.129 7.75463 458.816C8.92463 451.502 2.59463 426.708 7.75463 418.146C12.9146 409.584 15.3745 407.801 13.3845 399.239C11.3945 390.677 15.3745 381.579 13.3845 370.699C11.3945 359.818 8.57461 357.32 13.7346 338.591C18.8946 319.862 22.8747 293.106 21.3547 286.327C19.7147 279.728 33.3147 274.733 33.3147 274.733C33.3147 274.733 22.8746 249.226 22.1746 246.193C21.4746 243.161 16.5447 227.286 16.5447 227.286C16.5447 227.286 3.41448 223.005 4.59448 221.221C5.76448 219.437 -4.67552 175.735 2.59448 160.573C9.86448 145.412 22.1746 155.044 14.6746 129.536C7.05455 104.029 3.53452 108.845 5.88452 94.9316C8.22452 81.0184 12.2148 65.8566 10.6848 60.327C9.16481 54.7974 5.52452 36.6032 5.88452 34.8194C6.23452 33.0357 4.23461 13.5929 4.23461 13.5929L5.99438 9.31186Z" fill="#2DC113"/>
</svg>
