<svg width="122" height="99" viewBox="0 0 122 99" fill="none" xmlns="http://www.w3.org/2000/svg">
<path d="M60.7 98.9001L65.2 84.5001L62 81.6L58.6001 78.6L62.5 74.4001L69.3 67.0001L63.5 60.8001L58 55.1L64.2 50.5001L73.8 43.3001L65 40.6L54.1001 37.3001L66.1001 26.1C67.2001 10.7 80.6 -0.899996 96 0.200004C111.4 1.3 123 14.7 121.9 30.1C121.9 30.2 121.9 30.4001 121.9 30.5001C121.9 34.4001 120.9 65.3001 60.7 98.9001Z" fill="#FA1135"/>
<path d="M59.1002 74.4001L55.8002 79.1L59.6002 81.6L63.2001 84L60.7001 98.9001C-3.29995 62.6001 0.100202 29.8001 0.100202 29.8001C-0.999798 14.4001 10.7002 1.1 26.1002 0.100002C41.5002 -0.899998 54.8 10.7 55.9 26.1L45.6002 38.9001L56.8002 40.6L66.0001 42L57.5001 50.4001L52.0001 55.8001L58.2001 60.8001L64.8002 66.1L59.1002 74.4001Z" fill="#FA1135"/>
</svg>
