<svg width="128" height="129" viewBox="0 0 128 129" fill="none" xmlns="http://www.w3.org/2000/svg">
<path d="M64.1001 127.2C98.5601 127.2 126.5 99.263 126.5 64.8C126.5 30.338 98.5601 2.40002 64.1001 2.40002C29.6401 2.40002 1.7002 30.338 1.7002 64.8C1.7002 99.263 29.6401 127.2 64.1001 127.2Z" fill="#0B0200" stroke="black" stroke-width="3" stroke-miterlimit="10"/>
<path d="M126.5 64.8C126.5 69.2 126 73.5 125.2 77.6C119.3 49.3 94.2001 27.9 64.1001 27.9C34.0001 27.9 8.9 49.2 3 77.6C2.1 73.5 1.7002 69.2 1.7002 64.8C1.7002 30.3 29.6001 2.40002 64.1001 2.40002C98.6001 2.40002 126.5 30.3 126.5 64.8Z" fill="#56381E" stroke="black" stroke-width="3" stroke-miterlimit="10"/>
</svg>
