<svg width="34" height="34" viewBox="0 0 34 34" fill="none" xmlns="http://www.w3.org/2000/svg">
<g clip-path="url(#clip0)">
<path d="M17 3.06425C21.539 3.06425 22.0773 3.08125 23.8708 3.16342C28.4778 3.37308 30.6297 5.559 30.8394 10.132C30.9216 11.9241 30.9372 12.4624 30.9372 17.0014C30.9372 21.5418 30.9202 22.0788 30.8394 23.8708C30.6283 28.4396 28.4821 30.6297 23.8708 30.8394C22.0773 30.9216 21.5418 30.9386 17 30.9386C12.461 30.9386 11.9227 30.9216 10.1306 30.8394C5.51225 30.6283 3.37167 28.4325 3.162 23.8694C3.07983 22.0773 3.06283 21.5404 3.06283 17C3.06283 12.461 3.08125 11.9241 3.162 10.1306C3.37308 5.559 5.51933 3.37167 10.1306 3.162C11.9241 3.08125 12.461 3.06425 17 3.06425ZM17 0C12.3831 0 11.8051 0.0198333 9.99175 0.102C3.81792 0.385333 0.38675 3.81083 0.103417 9.99033C0.0198333 11.8051 0 12.3831 0 17C0 21.6169 0.0198333 22.1963 0.102 24.0097C0.385333 30.1835 3.81083 33.6147 9.99033 33.898C11.8051 33.9802 12.3831 34 17 34C21.6169 34 22.1963 33.9802 24.0097 33.898C30.1778 33.6147 33.6175 30.1892 33.8966 24.0097C33.9802 22.1963 34 21.6169 34 17C34 12.3831 33.9802 11.8051 33.898 9.99175C33.6203 3.82358 30.1906 0.38675 24.0111 0.103417C22.1963 0.0198333 21.6169 0 17 0V0ZM17 8.2705C12.1791 8.2705 8.2705 12.1791 8.2705 17C8.2705 21.8209 12.1791 25.7309 17 25.7309C21.8209 25.7309 25.7295 21.8223 25.7295 17C25.7295 12.1791 21.8209 8.2705 17 8.2705ZM17 22.6667C13.8706 22.6667 11.3333 20.1308 11.3333 17C11.3333 13.8706 13.8706 11.3333 17 11.3333C20.1294 11.3333 22.6667 13.8706 22.6667 17C22.6667 20.1308 20.1294 22.6667 17 22.6667ZM26.0752 5.88625C24.9475 5.88625 24.0337 6.8 24.0337 7.92625C24.0337 9.0525 24.9475 9.96625 26.0752 9.96625C27.2014 9.96625 28.1137 9.0525 28.1137 7.92625C28.1137 6.8 27.2014 5.88625 26.0752 5.88625Z" fill="white"/>
</g>
<defs>
<clipPath id="clip0">
<rect width="34" height="34" fill="white"/>
</clipPath>
</defs>
</svg>
