<svg width="143" height="145" viewBox="0 0 143 145" fill="none" xmlns="http://www.w3.org/2000/svg">
<path d="M75.3999 141.8C109.86 141.8 137.8 113.863 137.8 79.4C137.8 44.938 109.86 17 75.3999 17C40.9399 17 13 44.938 13 79.4C13 113.863 40.9399 141.8 75.3999 141.8Z" fill="#0B0200" stroke="black" stroke-width="3" stroke-miterlimit="10"/>
<path d="M137.8 79.4C137.8 83.8 137.3 88.1 136.5 92.2C130.6 63.9 105.5 42.5 75.3999 42.5C45.2999 42.5 20.1998 63.8 14.2998 92.2C13.3998 88.1 13 83.8 13 79.4C13 44.9 40.8999 17 75.3999 17C109.8 17 137.8 44.9 137.8 79.4Z" fill="#56381E" stroke="black" stroke-width="3" stroke-miterlimit="10"/>
<path d="M75.5019 7.30306C75.5019 7.30306 70.0219 3.55505 68.8319 3.28005C67.6419 3.00605 70.1121 4.92605 70.4721 5.38305C70.9321 5.93205 73.7617 10.0461 73.8617 10.9601C73.9517 11.8751 70.8419 11.5091 70.0219 11.5091C69.2019 11.5091 67.0019 11.6001 67.0019 11.6001C67.0019 11.6001 61.6119 10.0461 61.2519 10.0461C60.8819 9.95507 58.602 9.77206 58.412 9.86306C58.232 9.95506 59.422 11.417 59.602 11.417C59.882 11.509 61.0619 12.3321 61.0619 12.4231C61.0619 12.5151 58.502 13.4291 58.412 13.5201C58.232 13.6121 54.5817 15.0751 54.3017 15.1661C54.0317 15.2571 52.5617 15.897 52.1117 16.172C51.6517 16.446 50.6518 16.72 50.1918 17.0861C49.7318 17.4521 46.6318 19.7371 46.1718 19.9201C45.7118 20.1951 43.4318 22.389 42.8818 22.663C42.3318 22.937 38.2218 27.7831 37.6718 28.5151C37.1218 29.2461 33.382 35.3721 32.642 37.4751C31.912 39.5771 30.0918 45.429 29.9018 48.629C29.7218 51.92 29.2618 56.2171 29.6318 57.9551C30.0918 59.6921 30.7318 63.5321 30.7318 63.6231C30.7318 63.7151 30.9117 64.7201 31.0917 65.2691C31.2717 65.8171 32.6419 69.383 32.8319 69.749C33.1019 70.115 33.6518 71.5771 33.9218 72.1261C34.2018 72.6751 34.842 73.9551 34.932 74.2291C35.022 74.5031 36.9417 77.1551 37.0317 77.4291C37.1217 77.7031 38.3119 79.3491 38.3119 79.3491C38.3119 79.3491 40.9617 82.092 41.0517 82.183C41.1417 82.275 42.5121 83.737 42.7021 83.92C42.8821 84.103 43.882 85.109 44.162 85.383C44.432 85.6571 45.8017 86.389 45.8017 86.48C45.8917 86.572 47.2717 87.3951 47.3617 87.6691C47.5417 87.8521 48.642 88.766 48.642 88.766C48.642 88.766 47.5417 89.1321 47.3617 89.4061C47.1717 89.5891 45.2519 90.9601 45.2519 90.9601C45.2519 90.9601 42.702 92.972 42.602 93.063C42.422 93.155 41.4217 93.9771 41.0517 94.3431C40.6917 94.7091 35.5719 99.1891 34.2919 101.109C32.9219 103.029 26.8017 112.263 26.0717 114.549C25.3317 116.835 23.7817 120.492 23.7817 120.492C23.7817 120.492 22.7816 120.675 24.5116 122.32C26.2516 123.966 30.5419 127.989 30.5419 127.989L35.1117 131.463L38.3119 133.475C38.3119 133.475 45.3517 137.589 49.0917 138.777C52.8417 140.057 59.2418 141.612 60.8818 141.795C62.5318 141.977 67.8217 142.983 74.5917 142.435C81.3517 141.886 88.2021 140.332 88.2021 140.332C88.2021 140.332 96.4321 137.68 99.7221 135.852C103.012 134.023 106.662 131.829 106.752 131.737C106.842 131.646 111.232 128.263 111.322 128.263C111.412 128.263 115.982 124.149 116.802 123.326C117.532 122.595 118.902 121.315 119.002 120.492C119.002 119.669 116.162 113.269 114.522 110.526C112.872 107.783 109.042 101.749 107.212 99.7371C105.382 97.7261 102.732 95.3491 102.732 95.3491L99.5317 92.6061L95.8818 89.8631L94.2318 88.766L97.5219 86.206C97.5219 86.206 102.642 81.452 102.912 80.995C103.192 80.537 106.932 75.6921 106.932 75.6921C107.032 75.6921 110.322 69.566 110.952 67.189C111.592 64.812 112.782 59.6921 112.782 59.6921C112.782 59.6921 113.422 54.0231 113.242 51.9201C113.062 49.8171 112.602 44.7891 111.962 42.8691C111.322 40.9491 109.312 35.4631 107.852 32.9031C106.392 30.2521 102.272 24.7661 100.632 23.3031C99.0817 21.8401 95.422 18.823 93.872 17.909C92.312 16.995 90.6717 15.9891 90.3017 15.8061C89.9417 15.6231 86.562 14.3431 86.372 14.1601C86.192 13.9771 83.1819 13.1551 82.8119 12.9721C82.4519 12.8801 81.4418 12.5151 81.1718 12.2401C80.8918 11.9661 76.962 8.40005 76.872 8.40005C76.962 8.49205 75.5019 7.30306 75.5019 7.30306Z" fill="#464443"/>
<path d="M23.4219 121.131C28.3519 107.051 37.212 95.623 48.272 88.857C36.762 81.177 29.2617 68.194 29.2617 53.474C29.2617 33.817 42.7018 17.268 60.8818 12.514C59.9718 10.503 55.0317 9.67999 55.0317 9.67999C62.4317 8.85699 66.9121 11.417 66.9121 11.417C68.4621 11.234 69.9319 11.143 71.4819 11.143C72.2119 11.143 72.852 11.143 73.582 11.234C73.222 7.12001 65.9121 2 65.9121 2C71.6621 2.274 82.2617 12.514 82.2617 12.514C100.452 17.268 113.882 33.817 113.882 53.474C113.882 68.194 106.392 81.177 94.8721 88.765C105.932 95.531 114.702 107.051 119.732 121.04" stroke="black" stroke-width="3" stroke-miterlimit="10"/>
<path d="M77.6019 49.36C77.6019 49.36 74.0416 50.823 76.0516 53.2C78.0616 55.577 71.4817 56.034 71.4817 56.034C71.4817 56.034 64.9919 55.577 66.9119 53.2C68.9219 50.823 65.3616 49.36 65.3616 49.36C65.3616 49.36 59.0515 47.531 59.2415 43.874C59.5115 40.217 71.3919 42.777 71.3919 42.777C71.3919 42.777 83.3618 40.217 83.5418 43.874C83.7218 47.531 77.6019 49.36 77.6019 49.36Z" fill="#E03A50" stroke="black" stroke-width="2" stroke-miterlimit="10"/>
<path d="M71.5718 56.035V66.366" stroke="black" stroke-width="3" stroke-miterlimit="10"/>
<path d="M92.9521 45.612C99.6721 45.612 105.112 40.659 105.112 34.549C105.112 28.439 99.6721 23.486 92.9521 23.486C86.2421 23.486 80.8018 28.439 80.8018 34.549C80.8018 40.659 86.2421 45.612 92.9521 45.612Z" fill="white" stroke="black" stroke-width="2" stroke-miterlimit="10"/>
<path d="M50.1021 45.702C56.812 45.702 62.252 40.749 62.252 34.639C62.252 28.529 56.812 23.576 50.1021 23.576C43.3921 23.576 37.9419 28.529 37.9419 34.639C37.9419 40.749 43.3921 45.702 50.1021 45.702Z" fill="white" stroke="black" stroke-width="2" stroke-miterlimit="10"/>
<path d="M50.1021 43.782C52.9721 43.782 55.312 41.449 55.312 38.57C55.312 35.692 52.9721 33.359 50.1021 33.359C47.2221 33.359 44.8921 35.692 44.8921 38.57C44.8921 41.449 47.2221 43.782 50.1021 43.782Z" fill="black" stroke="black" stroke-width="3" stroke-miterlimit="10"/>
<path d="M92.9521 43.782C95.8321 43.782 98.1621 41.449 98.1621 38.57C98.1621 35.692 95.8321 33.359 92.9521 33.359C90.0821 33.359 87.752 35.692 87.752 38.57C87.752 41.449 90.0821 43.782 92.9521 43.782Z" fill="black" stroke="black" stroke-width="3" stroke-miterlimit="10"/>
<path d="M73.4019 68.286C73.4019 68.286 72.492 66.548 71.212 67.097C69.932 67.646 68.0118 69.2 68.0118 69.2C68.0118 69.2 65.3622 70.4799 65.1822 70.5709C64.9922 70.6629 62.8018 71.8509 63.0718 72.0339C63.3518 72.2169 67.3718 74.4109 67.5518 74.5029C67.7318 74.5029 73.5819 75.234 73.8619 75.051C74.1319 74.868 76.6919 74.411 77.1519 74.228C77.6019 74.046 79.3419 72.674 79.3419 72.674L79.6119 71.3029C79.6119 71.3029 77.3318 70.0229 77.2418 69.9309C77.1518 69.8399 74.6822 69.0169 74.6822 69.0169L73.4019 68.286Z" fill="#E03A50"/>
<path d="M72.3921 65.268C74.5021 67.005 76.7821 68.742 79.1621 69.931C80.3421 70.571 81.622 71.028 82.812 71.119C83.912 71.211 85.0919 70.571 86.1919 69.748C88.3819 68.102 90.2119 65.908 91.6719 63.531C92.0419 62.982 92.4118 62.342 92.5918 61.702C92.7718 61.062 92.5921 60.422 92.4121 59.691C92.2221 59.051 91.952 58.319 91.772 57.679C91.672 57.314 91.582 56.948 91.582 56.582C91.582 56.399 91.5819 56.217 91.6719 56.034C91.6719 55.942 91.7718 55.851 91.8618 55.851C91.9518 55.851 92.0418 55.759 92.1318 55.759C91.7718 55.851 91.672 56.308 91.772 56.582C91.772 56.948 91.952 57.222 92.042 57.588C92.312 58.228 92.5918 58.868 92.8618 59.599C93.0418 60.239 93.3219 60.971 93.2319 61.794C93.0419 62.525 92.7721 63.165 92.4121 63.897C91.7721 65.177 90.9421 66.365 90.1221 67.554C89.2121 68.742 88.2921 69.8391 87.2021 70.8451C86.6521 71.3021 86.0117 71.759 85.2817 72.125C84.6417 72.491 83.7218 72.765 82.9018 72.857C81.2618 72.857 79.8019 72.399 78.4219 71.851C75.6819 70.662 73.2219 69.199 70.7519 67.462C70.1119 67.005 70.0218 66.182 70.3818 65.542C70.8418 64.902 71.6618 64.811 72.3018 65.177C72.3018 65.177 72.3021 65.268 72.3921 65.268Z" fill="black"/>
<path d="M72.3921 67.462C70.0221 69.199 67.5522 70.662 64.7222 71.851C63.3522 72.399 61.8917 72.857 60.2417 72.857C59.4217 72.765 58.5018 72.582 57.8618 72.125C57.1318 71.759 56.5922 71.3021 55.9522 70.8451C54.8522 69.8391 53.842 68.742 53.022 67.554C52.202 66.365 51.3817 65.177 50.7417 63.897C50.3717 63.257 50.1019 62.617 49.9219 61.794C49.8219 60.971 50.1017 60.239 50.2817 59.599C50.5517 58.959 50.8321 58.228 51.1021 57.588C51.1921 57.222 51.3818 56.948 51.3818 56.582C51.4718 56.217 51.3817 55.851 51.0117 55.759C51.1017 55.759 51.192 55.851 51.292 55.851C51.382 55.942 51.4722 55.942 51.4722 56.034C51.5622 56.217 51.562 56.399 51.562 56.582C51.562 56.948 51.4718 57.314 51.3818 57.679C51.1918 58.411 50.9217 59.051 50.7417 59.691C50.5517 60.331 50.3718 61.062 50.5518 61.702C50.7418 62.342 51.1022 62.982 51.4722 63.531C52.9322 65.908 54.8522 68.102 56.9522 69.748C58.0522 70.571 59.242 71.211 60.332 71.119C61.522 71.028 62.8017 70.571 63.9917 69.931C66.3617 68.742 68.652 67.005 70.752 65.268C71.302 64.811 72.2119 64.811 72.6719 65.451C73.1219 66.0911 73.0321 66.822 72.3921 67.462C72.4921 67.371 72.3921 67.371 72.3921 67.462Z" fill="black"/>
<path d="M80.4321 71.578C78.5221 73.681 75.2318 75.052 71.5718 75.052C67.8218 75.052 64.5419 73.681 62.7119 71.578" stroke="black" stroke-width="3" stroke-miterlimit="10"/>
<path d="M36.3919 131.096C36.3919 131.096 35.0219 131.37 36.8519 132.833C38.6819 134.296 47.9016 139.325 52.1116 140.513C56.3116 141.702 67.2817 143.622 73.4017 143.165C79.5217 142.707 90.4917 140.879 91.6717 139.965C92.8617 139.05 106.842 133.565 107.392 132.65C107.942 131.736 105.932 127.347 105.112 125.245C104.192 123.142 98.8919 111.896 93.4119 107.599C87.9319 103.302 80.5318 98.639 75.7718 98.365C71.1118 98.09 66.1817 98.456 62.7117 99.736C59.2417 101.016 53.2016 104.033 49.8216 107.599C46.4416 111.165 43.1515 116.01 41.5115 118.753C39.8615 121.496 36.4819 130.09 36.3919 131.096Z" fill="#3A3737"/>
<path d="M35.6621 132.102C41.1421 112.353 55.1219 98.2729 71.4819 98.2729C87.9319 98.2729 101.912 112.353 107.302 132.102" stroke="black" stroke-width="3" stroke-miterlimit="10"/>
<path d="M119.732 121.13C108.032 134.57 90.7618 143.073 71.5718 143.073C52.3818 143.073 35.1119 134.57 23.4219 121.039" stroke="black" stroke-width="3" stroke-miterlimit="10" stroke-linecap="round"/>
<path d="M80.4419 56.674C80.4419 56.674 93.3219 51.005 98.7119 53.474" stroke="black" stroke-miterlimit="10" stroke-linecap="round"/>
<path d="M80.5317 58.412C80.5317 58.412 94.422 55.76 99.082 59.509" stroke="black" stroke-miterlimit="10" stroke-linecap="round"/>
<path d="M80.5317 59.783C80.5317 59.783 94.602 60.697 98.252 65.451" stroke="black" stroke-miterlimit="10" stroke-linecap="round"/>
<path d="M62.6221 56.5819C62.6221 56.5819 49.7318 50.914 44.3418 53.382" stroke="black" stroke-miterlimit="10" stroke-linecap="round"/>
<path d="M62.5317 58.412C62.5317 58.412 48.6419 55.76 43.9819 59.509" stroke="black" stroke-miterlimit="10" stroke-linecap="round"/>
<path d="M62.5317 59.783C62.5317 59.783 48.4518 60.697 44.8018 65.451" stroke="black" stroke-miterlimit="10" stroke-linecap="round"/>
<path d="M138.922 118.113C138.922 118.113 139.742 118.387 140.102 118.296C140.472 118.113 142.112 117.382 141.842 116.742C141.572 116.102 138.282 113.085 138.192 112.993C138.092 112.902 132.892 109.336 132.792 109.245C132.702 109.153 130.782 107.965 130.782 107.965H129.322L127.952 109.519C127.952 109.519 126.951 110.342 126.491 109.793C126.031 109.245 124.662 109.153 124.302 109.062C123.842 108.97 122.741 110.25 122.741 110.25L122.292 110.982C122.292 110.982 121.462 111.165 121.102 110.982C120.732 110.799 119.182 110.433 119.182 110.433L118.082 110.89C118.082 110.89 116.622 112.445 116.442 112.993C116.252 113.542 115.612 115.736 115.162 117.382C114.792 119.027 114.241 122.776 114.241 123.599C114.241 124.422 113.601 126.067 114.241 126.525C114.881 126.89 116.892 126.525 119.092 125.427C121.372 124.422 123.662 123.416 123.662 123.416C123.662 123.416 124.752 123.233 126.122 123.507C127.492 123.782 130.872 124.513 133.342 123.507C135.812 122.502 135.632 124.056 134.352 121.405C133.072 118.753 134.072 120.307 135.172 120.399C136.172 120.49 138.092 119.21 138.092 119.21C138.092 119.21 139.012 119.21 138.192 117.93C137.552 116.65 138.922 118.113 138.922 118.113Z" fill="#EF3E63"/>
<path d="M124.662 123.326C124.662 123.326 117.532 127.349 113.882 127.075C113.882 127.075 114.242 108.24 120.552 110.526C126.762 112.812 135.262 119.303 135.442 123.326C135.442 123.326 123.472 128.08 119.092 117.109" stroke="black" stroke-width="2" stroke-miterlimit="10"/>
<path d="M121.922 111.074C121.922 111.074 123.662 108.057 125.582 108.971C127.492 109.885 138.552 115.371 138.922 119.028C138.922 119.028 136.362 121.222 134.262 120.491" stroke="black" stroke-width="2" stroke-miterlimit="10"/>
<path d="M127.402 109.886C127.402 109.886 129.142 107.051 131.242 108.149C133.342 109.337 142.022 115.554 141.572 116.651C141.572 116.651 140.562 118.937 138.192 117.383" stroke="black" stroke-width="2" stroke-miterlimit="10"/>
<path d="M3.95223 118.023C3.95223 118.023 3.1318 118.298 2.7618 118.206C2.4018 118.023 0.751823 117.292 1.03182 116.652C1.30182 116.012 4.59221 112.995 4.68221 112.903C4.77221 112.72 9.98186 109.246 10.0719 109.155C10.1719 109.063 12.0821 107.875 12.0821 107.875H13.5518L14.922 109.429C14.922 109.429 15.9219 110.252 16.3819 109.703C16.8419 109.155 18.2119 109.063 18.5719 108.972C19.0319 108.88 20.1319 110.16 20.1319 110.16L20.5821 110.892C20.5821 110.892 21.4121 111.075 21.7721 110.892C22.1421 110.709 23.692 110.343 23.692 110.343L24.7921 110.8C24.7921 110.8 26.2522 112.355 26.4322 112.903C26.6122 113.452 27.252 115.646 27.712 117.292C28.082 118.938 28.6222 122.686 28.6222 123.509C28.6222 124.332 29.2622 125.978 28.6222 126.435C27.9822 126.892 25.9718 126.435 23.7818 125.338C21.5018 124.332 19.212 123.326 19.212 123.326C19.212 123.326 18.122 123.143 16.752 123.418C15.372 123.692 11.9918 124.423 9.53182 123.418C7.06182 122.32 7.24206 123.966 8.52206 121.315C9.80206 118.663 8.80223 120.218 7.70223 120.309C6.69223 120.4 4.77206 119.12 4.77206 119.12C4.77206 119.12 3.86221 119.12 4.68221 117.84C5.32221 116.56 3.95223 118.023 3.95223 118.023Z" fill="#EF3E63"/>
<path d="M18.3018 123.234C18.3018 123.234 25.432 127.257 29.082 126.983C29.082 126.983 28.7221 108.149 22.4121 110.434C16.1121 112.72 7.70197 119.211 7.52197 123.234C7.52197 123.234 19.4921 127.989 23.8721 117.017" stroke="black" stroke-width="2" stroke-miterlimit="10"/>
<path d="M21.042 110.982C21.042 110.982 19.3021 107.965 17.3921 108.879C15.4721 109.885 4.41199 115.279 4.04199 118.936C4.04199 118.936 6.60215 121.131 8.70215 120.399" stroke="black" stroke-width="2" stroke-miterlimit="10"/>
<path d="M15.5618 109.794C15.5618 109.794 13.822 106.96 11.722 108.057C9.62196 109.245 0.941878 115.463 1.39188 116.56C1.39188 116.56 2.40176 118.845 4.77176 117.291" stroke="black" stroke-width="2" stroke-miterlimit="10"/>
</svg>
