<svg width="38" height="38" viewBox="0 0 38 38" fill="none" xmlns="http://www.w3.org/2000/svg">
<path fill-rule="evenodd" clip-rule="evenodd" d="M19 0C13.8396 0 13.1936 0.0227999 11.1663 0.114C9.1447 0.2071 7.7634 0.5282 6.555 0.9975C5.28673 1.47411 4.13773 2.22173 3.1882 3.1882C2.22178 4.13777 1.47416 5.28675 0.9975 6.555C0.5282 7.7634 0.2071 9.1447 0.114 11.1663C0.0208999 13.1936 0 13.8396 0 19C0 24.1604 0.0208999 24.8064 0.114 26.8337C0.2071 28.8553 0.5282 30.2366 0.9975 31.445C1.47421 32.7132 2.22182 33.8622 3.1882 34.8118C4.13781 35.7782 5.28678 36.5258 6.555 37.0025C7.7634 37.4718 9.1447 37.7929 11.1663 37.886C13.1936 37.9772 13.8396 38 19 38C24.1604 38 24.8064 37.9772 26.8337 37.886C28.8553 37.7929 30.2366 37.4718 31.445 37.0025C32.7132 36.5258 33.8622 35.7782 34.8118 34.8118C35.7782 33.8622 36.5258 32.7132 37.0025 31.445C37.4718 30.2366 37.7929 28.8553 37.886 26.8337C37.9772 24.8064 38 24.1604 38 19C38 13.8396 37.9772 13.1936 37.886 11.1663C37.7929 9.1447 37.4718 7.7634 37.0025 6.555C36.5258 5.28675 35.7782 4.13777 34.8118 3.1882C33.8623 2.22173 32.7133 1.47411 31.445 0.9975C30.2366 0.5282 28.8553 0.2071 26.8337 0.114C24.8064 0.0227999 24.1604 0 19 0ZM19 3.4238C24.073 3.4238 24.6734 3.4428 26.676 3.534C28.5304 3.6195 29.5355 3.9273 30.2062 4.1876C31.0916 4.5334 31.7262 4.9457 32.3912 5.6088C33.0562 6.2738 33.4666 6.9084 33.8124 7.7938C34.0708 8.4645 34.3824 9.4696 34.466 11.3221C34.5572 13.3266 34.5762 13.9251 34.5762 19C34.5762 24.073 34.5572 24.6734 34.466 26.676C34.3805 28.5304 34.0708 29.5355 33.8124 30.2062C33.5078 31.0315 33.0222 31.7781 32.3912 32.3912C31.7262 33.0562 31.0916 33.4666 30.2062 33.8124C29.5355 34.0708 28.5304 34.3824 26.6779 34.466C24.6753 34.5572 24.0749 34.5762 19 34.5762C13.927 34.5762 13.3247 34.5572 11.324 34.466C9.4696 34.3805 8.4645 34.0708 7.7938 33.8124C6.96841 33.5079 6.22177 33.0223 5.6088 32.3912C4.97773 31.7782 4.49209 31.0316 4.1876 30.2062C3.9273 29.5355 3.6176 28.5304 3.534 26.6779C3.4428 24.6734 3.4238 24.0749 3.4238 19C3.4238 13.927 3.4428 13.3266 3.534 11.324C3.6195 9.4696 3.9273 8.4645 4.1876 7.7938C4.5334 6.9084 4.9457 6.2738 5.6088 5.6088C6.2738 4.9438 6.9084 4.5334 7.7938 4.1876C8.4645 3.9273 9.4696 3.6176 11.3221 3.534C13.3266 3.4428 13.9251 3.4238 19 3.4238ZM19 25.3327C17.3205 25.3327 15.7097 24.6655 14.5221 23.4779C13.3345 22.2903 12.6673 20.6795 12.6673 19C12.6673 17.3205 13.3345 15.7097 14.5221 14.5221C15.7097 13.3345 17.3205 12.6673 19 12.6673C20.6795 12.6673 22.2903 13.3345 23.4779 14.5221C24.6655 15.7097 25.3327 17.3205 25.3327 19C25.3327 20.6795 24.6655 22.2903 23.4779 23.4779C22.2903 24.6655 20.6795 25.3327 19 25.3327ZM19 9.2435C17.7188 9.2435 16.4501 9.49586 15.2663 9.98617C14.0826 10.4765 13.0071 11.1951 12.1011 12.1011C11.1951 13.0071 10.4765 14.0826 9.98617 15.2663C9.49586 16.4501 9.2435 17.7188 9.2435 19C9.2435 20.2812 9.49586 21.5499 9.98617 22.7337C10.4765 23.9174 11.1951 24.9929 12.1011 25.8989C13.0071 26.8049 14.0826 27.5235 15.2663 28.0138C16.4501 28.5041 17.7188 28.7565 19 28.7565C21.5876 28.7565 24.0692 27.7286 25.8989 25.8989C27.7286 24.0692 28.7565 21.5876 28.7565 19C28.7565 16.4124 27.7286 13.9308 25.8989 12.1011C24.0692 10.2714 21.5876 9.2435 19 9.2435ZM31.4222 8.8578C31.4222 9.15721 31.3632 9.4537 31.2486 9.73032C31.1341 10.0069 30.9661 10.2583 30.7544 10.47C30.5427 10.6817 30.2913 10.8497 30.0147 10.9642C29.7381 11.0788 29.4416 11.1378 29.1422 11.1378C28.8428 11.1378 28.5463 11.0788 28.2697 10.9642C27.9931 10.8497 27.7417 10.6817 27.53 10.47C27.3183 10.2583 27.1503 10.0069 27.0358 9.73032C26.9212 9.4537 26.8622 9.15721 26.8622 8.8578C26.8622 8.25311 27.1024 7.67318 27.53 7.2456C27.9576 6.81801 28.5375 6.5778 29.1422 6.5778C29.7469 6.5778 30.3268 6.81801 30.7544 7.2456C31.182 7.67318 31.4222 8.25311 31.4222 8.8578Z" fill="white" fill-opacity="0.8"/>
</svg>
