<svg width="51" height="51" viewBox="0 0 51 51" fill="none" xmlns="http://www.w3.org/2000/svg">
<g opacity="0.8">
<path d="M36.125 27.9011V35.7572H31.5711V28.4259C31.5711 26.5857 30.9124 25.3298 29.2634 25.3298C28.0054 25.3298 27.2552 26.1756 26.9259 26.9958C26.8069 27.2891 26.775 27.6971 26.775 28.1051V35.7572H22.219C22.219 35.7572 22.2806 23.3429 22.219 22.0573H26.775V23.9974L26.7452 24.0421H26.775V23.9996C27.3806 23.0646 28.4601 21.7343 30.8805 21.7343C33.8767 21.7343 36.125 23.6936 36.125 27.9011ZM17.4526 15.4507C15.895 15.4507 14.875 16.4749 14.875 17.8179C14.875 19.1354 15.8653 20.1873 17.3931 20.1873H17.4229C19.0124 20.1873 20.0005 19.1333 20.0005 17.8179C19.9707 16.4749 19.0124 15.4507 17.4526 15.4507ZM15.1449 35.7572H19.7009V22.0573H15.1449V35.7572Z" fill="white"/>
<path d="M25.5 42.5C30.0087 42.5 34.3327 40.7089 37.5208 37.5208C40.7089 34.3327 42.5 30.0087 42.5 25.5C42.5 20.9913 40.7089 16.6673 37.5208 13.4792C34.3327 10.2911 30.0087 8.5 25.5 8.5C20.9913 8.5 16.6673 10.2911 13.4792 13.4792C10.2911 16.6673 8.5 20.9913 8.5 25.5C8.5 30.0087 10.2911 34.3327 13.4792 37.5208C16.6673 40.7089 20.9913 42.5 25.5 42.5ZM25.5 46.75C13.7636 46.75 4.25 37.2364 4.25 25.5C4.25 13.7636 13.7636 4.25 25.5 4.25C37.2364 4.25 46.75 13.7636 46.75 25.5C46.75 37.2364 37.2364 46.75 25.5 46.75Z" fill="white"/>
</g>
</svg>
