<svg width="39" height="39" viewBox="0 0 39 39" fill="none" xmlns="http://www.w3.org/2000/svg">
<path d="M19.5 0C8.749 0 0 8.749 0 19.5C0 30.251 8.749 39 19.5 39C30.251 39 39 30.251 39 19.5C39 8.749 30.251 0 19.5 0ZM19.5 3.25C28.4944 3.25 35.75 10.5056 35.75 19.5C35.754 23.3902 34.359 27.1521 31.8197 30.0992C29.2804 33.0463 25.766 34.9822 21.918 35.5534V24.2385H26.546L27.2724 19.5374H21.918V16.9699C21.918 15.0199 22.5599 13.286 24.3848 13.286H27.3179V9.1845C26.8028 9.11463 25.7124 8.9635 23.6519 8.9635C19.3489 8.9635 16.8269 11.2353 16.8269 16.4125V19.5374H12.4036V24.2385H16.8269V35.5127C13.0321 34.8882 9.58301 32.9347 7.09587 30.0013C4.60874 27.068 3.24559 23.3458 3.25 19.5C3.25 10.5056 10.5056 3.25 19.5 3.25Z" fill="white" fill-opacity="0.8"/>
</svg>
