<svg width="260" height="122" viewBox="0 0 260 122" fill="none" xmlns="http://www.w3.org/2000/svg">
<rect x="34" y="24" width="226" height="73" rx="25" fill="#F06F38"/>
<path d="M148.109 45.656C148.109 47.912 147.797 50.912 147.173 54.656C147.461 54.416 147.893 54.008 148.469 53.432C149.141 52.76 150.485 51.776 152.501 50.48L153.581 49.688L155.741 48.608L158.117 47.024C158.021 46.928 158.141 46.688 158.477 46.304C159.389 44.72 159.917 43.328 160.061 42.128C160.061 41.504 159.965 41.048 159.773 40.76C159.581 40.424 158.981 40.208 157.973 40.112C157.877 40.016 157.421 39.896 156.605 39.752C154.637 39.752 153.317 39.872 152.645 40.112C152.021 40.352 151.541 40.472 151.205 40.472L150.125 40.76L148.901 40.832L148.613 42.776C148.613 42.824 148.517 43.304 148.325 44.216C148.325 44.552 148.253 45.032 148.109 45.656ZM160.349 77.48C159.629 77.24 158.621 76.544 157.325 75.392C157.085 75.056 156.461 74.48 155.453 73.664C154.493 73.088 153.293 71.96 151.853 70.28C151.853 70.232 151.685 69.848 151.349 69.128C150.773 68.6 150.221 67.544 149.693 65.96C149.645 65.912 149.573 65.816 149.477 65.672C149.381 65.528 149.213 65.312 148.973 65.024C148.781 64.688 148.565 64.136 148.325 63.368C148.085 62.6 147.605 61.76 146.885 60.848H146.597C146.597 61.136 146.525 61.544 146.381 62.072V63.512L145.949 67.688L144.869 74.672C145.061 75.056 145.061 75.704 144.869 76.616C144.869 77 144.749 77.624 144.509 78.488C144.269 79.352 143.909 79.928 143.429 80.216C142.949 80.504 142.013 80.552 140.621 80.36C140.141 80.168 139.469 79.496 138.605 78.344C138.269 78.2 137.789 77.432 137.165 76.04C137.261 75.176 137.285 74.648 137.237 74.456C137.189 74.216 137.165 73.928 137.165 73.592C137.165 73.256 137.189 73.04 137.237 72.944C137.141 73.04 137.141 72.56 137.237 71.504V71C137.237 70.808 137.381 70.04 137.669 68.696C137.669 67.688 137.669 66.992 137.669 66.608C137.717 66.176 137.885 65.672 138.173 65.096V63.152L138.245 61.208C138.533 60.344 138.677 59.336 138.677 58.184C138.773 57.608 138.821 57.056 138.821 56.528C138.869 55.952 138.965 55.328 139.109 54.656C139.109 53.6 139.181 52.808 139.325 52.28C139.469 51.704 139.541 51.32 139.541 51.128C139.589 50.888 139.637 50.528 139.685 50.048L140.189 46.952L140.405 42.416L139.541 41.84C138.005 41.216 136.925 40.592 136.301 39.968C136.061 39.824 135.965 39.464 136.013 38.888C136.109 38.264 136.445 37.76 137.021 37.376C137.693 37.376 138.677 36.968 139.973 36.152C140.117 36.152 140.549 35.912 141.269 35.432L142.565 35C142.709 34.856 143.309 34.592 144.365 34.208C144.605 34.208 144.989 34.088 145.517 33.848C146.045 33.56 146.597 33.392 147.173 33.344C147.653 33.296 148.613 33.176 150.053 32.984C151.541 32.744 152.789 32.768 153.797 33.056C154.421 33.056 155.093 33.176 155.813 33.416C156.965 33.416 158.261 33.8 159.701 34.568C160.037 34.568 160.517 34.784 161.141 35.216L162.509 35.864L164.309 37.304C165.317 38.12 166.229 39.152 167.045 40.4C167.621 40.976 167.837 41.72 167.693 42.632C167.021 46.808 164.117 50.96 158.981 55.088L156.893 56.024L153.365 58.256C154.565 59.936 156.125 61.904 158.045 64.16C158.189 64.496 158.741 65.168 159.701 66.176L162.149 69.2L163.013 70.496L164.957 72.656C165.101 72.992 165.509 73.4 166.181 73.88L167.405 75.032C168.509 75.896 168.965 76.88 168.773 77.984C168.581 79.088 167.909 79.664 166.757 79.712L165.029 79.568L161.573 78.632L160.349 77.48ZM194.938 60.056L195.01 61.424C195.01 61.568 195.154 63.08 195.442 65.96V66.824C195.442 67.976 195.634 69.704 196.018 72.008C196.018 73.016 196.522 74.768 197.53 77.264C197.77 77.408 197.938 77.744 198.034 78.272L197.962 78.992C198.058 79.232 197.938 79.496 197.602 79.784C197.602 80.12 197.146 80.288 196.234 80.288C195.322 80.288 194.746 80.336 194.506 80.432C194.266 80.528 193.882 80.48 193.354 80.288C193.162 80.384 192.586 80.192 191.626 79.712C191.194 79.616 190.858 79.184 190.618 78.416L190.042 77.048C190.042 76.184 189.802 75.416 189.322 74.744C189.322 74.504 189.202 74.072 188.962 73.448C188.77 72.824 188.626 72.488 188.53 72.44C188.05 74.36 187.45 75.848 186.73 76.904C186.73 77.144 186.586 77.432 186.298 77.768L185.578 79.136C185.578 79.232 185.362 79.496 184.93 79.928C184.642 80.552 183.994 80.864 182.986 80.864C182.074 80.864 180.97 80.624 179.674 80.144C179.338 80.096 178.666 79.88 177.658 79.496C177.37 79.544 176.914 79.472 176.29 79.28C175.714 79.04 175.378 78.92 175.282 78.92C175.138 78.776 174.802 78.536 174.274 78.2L173.05 76.904C173.002 76.856 172.906 76.64 172.762 76.256C172.666 75.824 172.642 75.536 172.69 75.392C172.738 75.2 172.738 74.936 172.69 74.6C172.642 74.264 172.666 73.928 172.762 73.592C172.762 72.632 172.858 71.576 173.05 70.424C173.002 70.28 172.978 70.112 172.978 69.92C172.978 69.728 173.074 69.368 173.266 68.84C173.218 68.6 173.194 68.432 173.194 68.336L173.554 65.528C173.554 64.856 173.578 64.376 173.626 64.088V63.008C173.674 62.816 173.698 62.552 173.698 62.216L174.058 58.76C174.058 58.232 174.082 57.896 174.13 57.752V57.032C174.226 56.936 174.274 56.552 174.274 55.88L174.922 53.864L175.426 53C175.474 52.808 175.738 52.592 176.218 52.352C176.986 51.872 178.09 51.632 179.53 51.632C180.106 51.728 180.73 51.968 181.402 52.352C181.546 52.304 181.882 52.4 182.41 52.64C183.37 53.072 183.418 54.296 182.554 56.312C182.362 57.608 182.266 58.28 182.266 58.328C182.074 58.712 181.978 59.024 181.978 59.264C181.69 60.8 181.546 61.616 181.546 61.712C181.738 61.52 181.666 61.808 181.33 62.576L181.042 65.24C180.706 66.392 180.562 67.664 180.61 69.056L180.322 69.992C180.37 70.232 180.346 70.976 180.25 72.224C180.346 72.368 180.394 72.536 180.394 72.728L180.466 73.304C180.418 73.448 180.442 73.592 180.538 73.736C180.634 73.832 180.898 73.88 181.33 73.88C181.81 73.832 182.218 73.712 182.554 73.52C183.226 72.704 183.682 71.864 183.922 71C184.162 70.088 184.282 69.56 184.282 69.416C185.098 67.352 185.602 66.152 185.794 65.816C186.034 64.52 186.442 63.032 187.018 61.352C186.922 61.112 186.922 60.632 187.018 59.912L187.954 56.096C188.386 55.376 188.602 54.944 188.602 54.8C188.602 54.608 188.89 53.936 189.466 52.784C189.466 52.592 189.61 52.208 189.898 51.632C190.234 51.104 190.834 50.6 191.698 50.12H191.914C192.97 50.024 193.882 50.168 194.65 50.552C194.746 50.744 194.794 51.08 194.794 51.56C194.89 52.04 194.986 52.904 195.082 54.152V54.872L194.794 56.456C195.178 57.656 195.226 58.856 194.938 60.056ZM220.387 77.336L219.955 76.112L219.163 71.288C218.923 70.376 218.803 69.56 218.803 68.84L219.091 65.672C219.091 65.144 219.115 64.856 219.163 64.808C218.587 64.808 217.723 65.504 216.571 66.896C216.475 67.04 216.331 67.28 216.139 67.616C214.123 70.832 212.923 74.696 212.539 79.208C212.155 80.024 211.651 80.432 211.027 80.432C209.731 80.144 209.011 80 208.867 80L208.363 80.072H207.427C206.323 79.976 205.603 79.544 205.267 78.776C205.075 78.536 204.979 77.912 204.979 76.904V75.896L204.763 71.936V66.032C204.763 65.36 204.715 64.52 204.619 63.512C204.523 62.408 204.499 60.68 204.547 58.328C204.595 55.928 204.571 54.656 204.475 54.512C204.379 54.32 204.331 54.08 204.331 53.792C204.331 53.504 204.403 53.216 204.547 52.928C204.691 52.64 205.339 52.328 206.491 51.992C207.115 51.608 207.643 51.416 208.075 51.416C208.747 51.56 209.611 51.848 210.667 52.28C211.387 52.424 211.747 53.12 211.747 54.368C211.843 56.432 211.843 57.92 211.747 58.832C211.699 59.744 211.723 61.592 211.819 64.376C215.371 57.56 218.539 53.456 221.323 52.064C221.563 51.824 221.923 51.704 222.403 51.704C222.883 51.704 223.435 51.944 224.059 52.424C224.683 52.904 225.115 53.216 225.355 53.36C225.595 53.504 225.859 53.744 226.147 54.08C226.483 54.416 226.747 54.632 226.939 54.728C227.515 55.688 227.635 57.944 227.299 61.496C227.251 62.024 227.203 62.504 227.155 62.936C227.107 63.32 227.083 64.184 227.083 65.528C227.083 66.872 227.107 67.808 227.155 68.336C227.299 70.016 227.371 71 227.371 71.288L227.731 74.024C228.211 75.128 228.451 75.992 228.451 76.616C228.499 77.192 228.931 78.128 229.747 79.424C230.083 80.144 229.939 80.72 229.315 81.152C228.355 81.632 227.827 81.824 227.731 81.728C227.683 81.68 227.419 81.728 226.939 81.872C226.459 82.064 225.595 82.112 224.347 82.016C223.723 81.872 223.099 81.488 222.475 80.864L221.395 79.784C221.011 79.208 220.747 78.584 220.603 77.912C220.363 77.672 220.291 77.48 220.387 77.336Z" fill="url(#paint0_linear)"/>
<g filter="url(#filter0_d)">
<circle cx="61" cy="57" r="57" fill="#241663"/>
<circle cx="61" cy="57" r="54.5" stroke="#F06F38" stroke-width="5"/>
</g>
<path d="M90.438 50.0095C95.9179 53.059 95.9179 60.9411 90.438 63.9905L52.6401 85.0244C47.3077 87.9918 40.75 84.1363 40.75 78.0339L40.75 35.9661C40.75 29.8637 47.3078 26.0083 52.6401 28.9756L90.438 50.0095Z" fill="white"/>
<path d="M87.8927 51.7883C91.7797 54.1418 91.7414 59.794 87.823 62.0948L51.038 83.6933C47.0381 86.0418 42 83.1576 42 78.5193V57L42 34.6472C42 29.9726 47.109 27.0935 51.1077 29.5148L87.8927 51.7883Z" fill="#F06F38"/>
<defs>
<filter id="filter0_d" x="0" y="0" width="122" height="122" filterUnits="userSpaceOnUse" color-interpolation-filters="sRGB">
<feFlood flood-opacity="0" result="BackgroundImageFix"/>
<feColorMatrix in="SourceAlpha" type="matrix" values="0 0 0 0 0 0 0 0 0 0 0 0 0 0 0 0 0 0 127 0" result="hardAlpha"/>
<feOffset dy="4"/>
<feGaussianBlur stdDeviation="2"/>
<feComposite in2="hardAlpha" operator="out"/>
<feColorMatrix type="matrix" values="0 0 0 0 0 0 0 0 0 0 0 0 0 0 0 0 0 0 0.25 0"/>
<feBlend mode="normal" in2="BackgroundImageFix" result="effect1_dropShadow"/>
<feBlend mode="normal" in="SourceGraphic" in2="effect1_dropShadow" result="shape"/>
</filter>
<linearGradient id="paint0_linear" x1="183" y1="24" x2="183" y2="89" gradientUnits="userSpaceOnUse">
<stop offset="0.9999" stop-color="white"/>
<stop offset="1" stop-color="#F8A821" stop-opacity="0"/>
</linearGradient>
</defs>
</svg>
