<svg width="36" height="36" viewBox="0 0 36 36" fill="none" xmlns="http://www.w3.org/2000/svg">
<rect x="4.2666" y="4.39453" width="26.8827" height="26.1753" rx="10" transform="rotate(-0.273799 4.2666 4.39453)" fill="white"/>
<path d="M17.8141 26.967C12.7206 26.9914 8.59785 22.9079 8.57351 17.8144C8.56269 15.5506 9.40146 13.4242 10.879 11.7193L11.9445 12.6339C10.6779 14.0549 9.97924 15.8976 9.98837 17.8076C10.009 22.1229 13.492 25.5728 17.8073 25.5522C18.9392 25.5468 19.9993 25.3295 21.0581 24.8292L21.6301 26.0999C20.4302 26.6716 19.1582 26.9606 17.8141 26.967Z" fill="black"/>
<path d="M24.662 23.8935L23.5964 22.9789C24.863 21.558 25.5617 19.7153 25.5526 17.8052C25.5319 13.4899 22.049 10.04 17.7336 10.0607C16.6017 10.0661 15.5416 10.2834 14.4828 10.7837L13.9108 9.51298C15.1107 8.94129 16.3827 8.65223 17.7269 8.64581C22.8204 8.62147 26.9431 12.705 26.9674 17.7985C26.9779 19.9915 26.1395 22.1886 24.662 23.8935Z" fill="black"/>
<path d="M12.8141 17.0867L11.3995 17.0935L11.3792 12.8495L7.13518 12.8697L7.12842 11.4551L12.7871 11.428L12.8141 17.0867Z" fill="black"/>
<path d="M28.4113 24.0867L22.7526 24.1138L22.7256 18.4551L24.1403 18.4483L24.1605 22.6923L28.4046 22.672L28.4113 24.0867Z" fill="black"/>
</svg>
